<?xml version="1.0" encoding="UTF-8" standalone="no"?>
<!-- Created with Inkscape (http://www.inkscape.org/) -->

<svg
   width="210mm"
   height="210mm"
   viewBox="0 0 210 210"
   version="1.1"
   id="svg1"
   xmlns="http://www.w3.org/2000/svg"
   xmlns:svg="http://www.w3.org/2000/svg">
  <defs
     id="defs1" />
  <g
     id="layer1">
    <path
       id="path1-2"
       style="color:#000000;font-style:normal;font-variant:normal;font-weight:normal;font-stretch:normal;font-size:medium;line-height:normal;font-family:sans-serif;font-variant-ligatures:normal;font-variant-position:normal;font-variant-caps:normal;font-variant-numeric:normal;font-variant-alternates:normal;font-variant-east-asian:normal;font-feature-settings:normal;font-variation-settings:normal;text-indent:0;text-align:start;text-decoration-line:none;text-decoration-style:solid;text-decoration-color:#000000;letter-spacing:normal;word-spacing:normal;text-transform:none;writing-mode:lr-tb;direction:ltr;text-orientation:mixed;dominant-baseline:auto;baseline-shift:baseline;text-anchor:start;white-space:normal;shape-padding:0;shape-margin:0;inline-size:0;clip-rule:nonzero;display:inline;overflow:visible;visibility:visible;isolation:auto;mix-blend-mode:normal;color-interpolation:sRGB;color-interpolation-filters:linearRGB;solid-color:#000000;solid-opacity:1;vector-effect:none;fill:#000000;fill-opacity:1;fill-rule:nonzero;stroke:none;stroke-linecap:butt;stroke-linejoin:miter;stroke-miterlimit:4;stroke-dasharray:none;stroke-dashoffset:0;stroke-opacity:1;-inkscape-stroke:none;color-rendering:auto;image-rendering:auto;shape-rendering:auto;text-rendering:auto;enable-background:accumulate;stop-color:#000000;stop-opacity:1"
       d="m 125.88017,0 v 29.620931 c 20.48303,7.536341 36.66714,23.621397 44.32908,44.057776 h 29.62403 C 190.30403,37.57902 162.03679,9.4166679 125.88017,0 Z M 73.956209,0.21083984 C 37.933207,9.654969 9.7685507,37.713249 0.20980632,73.678707 H 29.974398 C 37.620067,53.409311 53.656728,37.435959 73.956209,29.870528 Z M 0,125.56029 c 9.3015746,36.37952 37.611514,64.86057 73.956209,74.40322 V 170.12915 C 53.390501,162.46526 37.213676,146.17777 29.690177,125.56029 Z m 170.3095,0 c -7.54428,20.67479 -23.78872,36.99254 -44.42933,44.62984 v 29.81007 c 36.41735,-9.49743 64.80149,-38.00406 74.12003,-74.43991 z"
       transform="scale(1.049999)" />
  </g>
</svg>
